<?xml version="1.0" encoding="UTF-8" standalone="no"?>
<svg
   xmlns:dc="http://purl.org/dc/elements/1.1/"
   xmlns:cc="http://creativecommons.org/ns#"
   xmlns:rdf="http://www.w3.org/1999/02/22-rdf-syntax-ns#"
   xmlns:svg="http://www.w3.org/2000/svg"
   xmlns="http://www.w3.org/2000/svg"
   id="svg993"
   version="1.1"
   viewBox="0 0 59.267605 51.749516"
   height="51.749516mm"
   width="59.267605mm">
  <defs
     id="defs987" />
  <metadata
     id="metadata990">
    <rdf:RDF>
      <cc:Work
         rdf:about="">
        <dc:format>image/svg+xml</dc:format>
        <dc:type
           rdf:resource="http://purl.org/dc/dcmitype/StillImage" />
        <dc:title></dc:title>
      </cc:Work>
    </rdf:RDF>
  </metadata>
  <g
     transform="translate(-77.161571,-33.833441)"
     id="layer1">
    <path
       id="path19072-3-1-55-8-8-5-2-7-0"
       d="m 119.39135,44.896303 c -3.69525,-0.01423 -9.03625,1.330328 -8.83854,9.275863 0,0 -6.75565,5.845248 -6.82944,13.758473 h 3.46326 v 1.474371 c 0,0.975561 0.0344,1.474016 0.10114,1.474016 0.0665,0 0.0891,0.559089 0.0721,1.719328 4.41582,-1.542264 12.9369,-5.542431 12.90899,-13.455087 -0.0376,-10.017426 1.71349,-12.50287 2.542,-13.858605 0,0 -1.48389,-0.380745 -3.41949,-0.388359 z"
       style="opacity:1;fill:#19b5fe;fill-opacity:1;stroke-width:0.18829659" />
    <path
       style="fill:#0698dc;fill-opacity:0.98260869;stroke-width:0.18829659"
       d="m 131.22786,38.844741 c -2.57967,1.355735 -9.65961,5.196986 -9.94206,6.420919 -0.35776,1.487537 0,1.412243 0,1.412243 0,0 0.65904,0.32011 1.75116,-0.602573 0.24478,-0.207097 5.5924,-4.594413 8.36037,-7.042281 0.0941,-0.07529 -0.0377,-0.244744 -0.16947,-0.188308 z"
       id="path19074-6-2-4-6-9-9-1-5-6" />
    <path
       id="path19080-0-7-6-3-2-7-0-3-6"
       d="m 84.362702,43.865374 c -0.455278,0 -0.897496,0.01352 -1.324692,0.05266 -0.790849,0.07537 -1.148682,0.997978 -0.640285,1.600551 0.684345,0.806538 1.719835,1.841665 3.071222,2.681011 h 0.159607 c 1.061836,0 1.971574,0.03914 2.021248,0.0864 0.04968,0.04768 0.752985,0.103975 1.563743,0.125468 0.96638,0.02562 1.564775,0.08291 1.736231,0.166531 0.238674,0.116501 0.261874,0.174004 0.262586,0.65908 5.62e-4,0.292355 0.02711,0.692385 0.05957,0.888522 l 0.05885,0.356335 h 0.653522 0.653151 v 2.234935 1.565607 c 0.560712,0.204748 1.184173,0.38779 1.886643,0.538024 0,0 0.0083,0.04839 0.03017,0.131304 h 1.554548 c 3.372721,0 3.471352,-0.0071 3.471352,-0.184252 0,-0.294134 0.121183,-0.295913 0.583642,-0.0078 0.80091,0.498455 0.7992,0.49084 0.76753,3.83029 l -0.021,2.218709 c 0.53511,0.4707 1.17891,0.875215 1.91754,1.03527 0,0 7.23066,1.864225 11.18489,-3.219818 0.77202,-1.016766 0.48971,-2.504375 -0.6024,-3.182242 C 108.31342,52.354982 93.620084,43.931275 84.362688,43.86573 Z"
       style="fill:#0698dc;fill-opacity:1;stroke-width:0.18829659" />
    <path
       id="path6499-1-5-8-9-2-5-4"
       d="m 85.367861,49.867688 c -0.05523,0.08633 -0.107768,0.165179 -0.150049,0.222113 l 3.7e-4,1.21881 c 0,0.809029 0.02761,2.053957 0.06177,2.766697 l 0.06213,1.296026 1.007678,0.02704 1.007678,0.02704 -0.01985,0.809456 c 0.135616,0.03416 0.148291,0.08896 0.102608,0.184963 -0.05622,0.118138 -0.104558,0.744409 -0.107384,1.391604 -3.7e-4,0.0669 -0.0036,0.125112 -0.005,0.189091 0.01409,0.251719 0.03907,0.424086 0.07759,0.51703 l 0.117689,0.283957 h 0.07723 c -0.05515,-0.288227 -0.06021,-0.766969 -0.01139,-1.445335 0.04455,-0.618727 0.113647,-1.745162 0.153729,-2.503378 l 0.07282,-1.378793 h 1.235328 c 0.679497,0 1.91649,-0.03985 2.748691,-0.08754 0.275794,-0.01566 0.508127,-0.02704 0.701694,-0.03274 0.194835,-0.0071 0.337347,0 0.457869,0 -0.01537,-0.137566 -0.03423,-0.218056 -0.05701,-0.24083 -0.06626,-0.06618 -0.401938,-0.10248 -0.961341,-0.110736 0.01615,0.03701 -0.05992,0.0612 -0.186088,0.05622 -0.128628,-0.0071 -0.167805,-0.02847 -0.120258,-0.05978 H 90.638458 V 51.47719 49.955421 H 88.22517 c -1.327297,0 -2.546982,-0.02633 -2.710439,-0.05907 z m 8.124698,1.966493 v 0.314417 c 0.158575,0 0.325085,-0.0071 0.492812,-0.0071 0.35348,0 0.706797,0.0071 0.974948,0.01922 0.536309,0.02562 0.09767,0.04626 -0.974948,0.04626 h -0.492812 v 0.45974 2.234864 h 3.471352 c 1.788183,0 2.642759,0 3.063499,-0.02989 l 0.0239,-0.74142 c 0.0252,-0.776862 -0.0111,-0.981183 -0.193807,-1.08345 -0.123845,-0.06903 -1.017755,-0.107534 -1.986312,-0.0849 l -1.760862,0.04128 0.06433,-0.571472 0.06476,-0.571544 -2.001023,-0.01708 c -0.280591,0 -0.494028,-0.0071 -0.745832,-0.0085 z m -0.516339,1.716695 c -0.389043,0.04057 -1.136761,0.05765 -2.353343,0.05765 h -2.689843 v 2.75716 c 0,1.162659 -0.02356,2.006631 -0.06398,2.435698 h 2.400783 2.746479 v -2.786552 c 0,-1.25781 -0.01167,-2.032678 -0.04007,-2.463667 z m 2.51295,1.826365 v 2.644217 c 0,1.929557 0.03074,2.674607 0.11401,2.757872 0.08329,0.08327 0.828315,0.11401 2.757879,0.11401 h 2.643881 v -2.643862 c 0,-1.929556 -0.0308,-2.674606 -0.11401,-2.757872 -0.0833,-0.08326 -0.82833,-0.114365 -2.757884,-0.114365 z m 6.24283,0.289792 c 0.0763,0.492549 0.0692,1.31759 0.0544,2.872594 l -0.0276,2.924474 h -5.142848 3.962958 c -0.003,0.19329 -0.008,0.378752 -0.018,0.521514 -0.0237,0.337973 -0.0424,0.08746 -0.0467,-0.521514 h 1.24458 c 0.002,0.187953 0.005,0.577024 0.005,0.577024 v 2.192306 h 0.48269 -4.764186 v -0.381029 c 0,-0.243961 0.07031,-0.381029 0.195653,-0.381029 0.107705,0 0.165578,0.0491 0.128713,0.10853 -0.03686,0.05978 -0.103007,1.244928 -0.147102,2.633898 l -0.05551,1.751283 c 0.568363,-0.03274 1.793265,-0.03487 4.542292,-0.03487 h 1.25371 v -0.402308 -1.00844 h 0.20154 v 1.004028 0.40672 h 1.82082 c -0.001,-0.06191 -0.005,-0.111163 -0.005,-0.185675 0,-0.58044 0.0538,-0.813441 0.20154,-0.870162 0.0208,-0.0078 0.0397,-0.01281 0.0567,-0.01352 0.1183,-0.0071 0.14527,0.177775 0.14527,0.806111 0,0.106039 -0.004,0.180053 -0.006,0.263389 h 0.1438 c -7.2e-4,-0.07992 -0.004,-0.136783 -0.004,-0.240545 0,-0.479738 -0.0701,-0.917416 -0.16146,-1.008795 -0.0968,-0.09679 -0.56474,-0.161123 -1.17317,-0.161478 0.85055,0 1.22297,0.05053 1.25776,0.168452 0.0273,0.09245 0.10112,0.531121 0.16403,0.97492 0.0162,0.114295 0.0293,0.182971 0.0431,0.267446 h 1.10073 v 1.474301 c 0,0.97556 0.0344,1.474015 0.10113,1.474015 0.0685,0 0.0914,0.580653 0.0713,1.814977 l -0.0298,-0.168951 -0.0905,0.08092 c 0.18645,0.324522 0.19409,-0.04484 0.19453,-0.198486 l 0.002,-2.115018 2.32024,-0.03701 2.32024,-0.03701 0.0386,-1.244145 0.0386,-1.244146 h 0.67227 0.67228 l -0.0154,-2.774098 c -0.01,-1.725449 -0.0683,-2.831103 -0.15594,-2.925186 -0.0939,-0.100915 -0.68393,-0.137139 -1.77153,-0.108103 -0.89696,0.0242 -1.9488,0.0071 -2.33715,-0.04341 l -0.70612,-0.08682 v -0.663065 -0.66278 l -2.79062,-0.0306 -2.79097,-0.0306 2.79723,-0.03914 c 1.78174,-0.02491 2.76745,-0.08704 2.71559,-0.170943 -0.12912,-0.208947 -5.54051,-0.173577 -5.62537,0.03701 -0.0397,0.09842 -0.0725,0.06832 -0.0787,-0.07252 -0.009,-0.198841 -0.0431,-0.210868 -0.19749,-0.06761 -0.13537,0.125682 -0.14413,0.200621 -0.0331,0.272215 0.0843,0.05409 0.0927,0.09892 0.0188,0.09892 -0.39435,0 -0.4475,-0.259262 -0.49208,-2.395631 -0.041,-1.961724 -0.0581,-2.181986 -0.30267,-2.40047 z m 1.8793,4.925483 c 0.66844,0.0071 1.33717,0.03345 1.38501,0.08127 0.0346,0.03487 -0.59282,0.06263 -1.39421,0.06263 -0.80137,0 -1.42007,-0.03772 -1.37471,-0.08277 0.0471,-0.04697 0.71546,-0.06619 1.38391,-0.0612 z m 4.09287,1.354455 0.70611,0.0242 0.70612,0.0242 -0.63329,0.04982 -0.63294,0.05053 -0.0463,0.968017 -0.0463,0.967945 -0.0268,-1.0426 z m -2.86563,6.431168 c -0.32785,0 -0.78201,0 -1.23644,0.0071 v 0.142691 l -0.2019,0.0071 v -0.147458 c -0.0862,0 -0.13243,-1.42e-4 -0.22324,0 -1.8687,0.02491 -2.16305,0.0491 -2.21358,0.180907 -0.011,0.02918 -0.0216,0.104189 -0.0316,0.205958 0.0283,0.01566 0.0507,0.03274 0.0636,0.05338 0.0878,0.138492 0.11469,0.125824 0.1162,-0.0548 5.7e-4,-0.06405 0.0194,-0.109811 0.0695,-0.144113 v 3.171211 c 0,1.131132 -0.008,2.056163 -0.021,2.586501 l 0.13019,0.02348 c 0.18308,0.03203 1.45183,0.06405 2.8193,0.07138 2.28546,0.01139 2.49159,-2.13e-4 2.55414,-0.154148 0.0374,-0.09152 0.0894,-1.364631 0.11511,-2.829182 0.0398,-2.267814 0.0255,-2.690761 -0.0956,-2.850246 -0.0304,-0.03985 -0.0753,-0.07366 -0.13423,-0.103691 -0.0652,-0.0071 -0.13575,-0.0071 -0.21552,-0.0071 -0.18973,0 -0.28362,0 -0.33062,-0.115077 -0.0708,-0.0071 -0.1523,-0.01281 -0.23794,-0.01779 -0.0313,0.09444 -0.0772,0.133083 -0.14564,0.133083 -0.0729,0 -0.12065,-0.04128 -0.15189,-0.144541 -0.18821,-0.0071 -0.3773,-0.01281 -0.62887,-0.01494 z m -7.250528,0.09892 -0.0085,0.262251 1.650909,-0.04555 c 0.51967,-0.01423 0.888859,-0.01708 1.156629,-0.0071 l -3.8e-4,-0.06832 -1.426201,-0.03985 c -0.659521,-0.0185 -1.088431,-0.04839 -1.372502,-0.101555 z m 4.668808,0.06049 h 1.04556 l -0.91097,0.02918 -1.16398,0.03701 c 0.13661,-0.05409 0.42538,-0.06547 1.02939,-0.06547 z m -2.78731,6.189769 c -0.830415,-0.0078 -1.680814,0.02348 -1.785508,0.100061 -0.140633,0.103335 -0.22876,3.399586 -0.189397,5.141404 0.0072,0.21094 0.01544,0.36765 0.02612,0.398608 l 0.07429,0.215565 2.679915,-0.02491 2.67992,-0.02562 0.025,-2.814948 0.0243,-2.685423 c -0.0273,0 -0.0612,-0.0071 -0.0875,-0.0071 -1.11563,-0.07672 -1.29448,-0.09693 -0.0375,-0.132727 l -0.84734,-0.05551 c -0.36871,-0.0242 -0.69555,-0.05978 -0.88226,-0.0923 -0.004,0.07707 -0.009,0.126891 -0.0132,0.113227 -0.0259,-0.07814 -0.83631,-0.124614 -1.666725,-0.132371 z"
       style="opacity:1;fill:#19b5fe;fill-opacity:1;stroke:none;stroke-width:0.25416863;stroke-linecap:square;stroke-linejoin:round;stroke-miterlimit:4;stroke-dasharray:none;stroke-dashoffset:0;stroke-opacity:1" />
    <path
       id="path6521-2-7-6-9-0-6-6"
       d="m 106.44237,68.501329 -2.51406,0.0491 -2.70088,0.05266 -0.0526,2.895438 -0.0522,2.881063 0.0905,0.01637 2.62474,0.05124 c 0.84792,0.01637 1.59167,0.02562 2.11209,0.02918 0.57786,-0.01495 0.67584,-0.05622 0.71384,-0.149309 0.006,-0.01423 0.0118,-0.06263 0.018,-0.127603 0.0246,-0.472621 0.028,-1.519491 0.005,-2.729191 l -0.0551,-2.873732 c -0.044,-0.03701 -0.10627,-0.06832 -0.18904,-0.09487 z m -8.7341,6.473797 v 2.758228 2.757943 h 2.663 2.58392 l 0.0246,-2.773742 0.0246,-2.742429 h -2.63321 z"
       style="opacity:1;fill:#0698dc;fill-opacity:1;stroke:none;stroke-width:0.35944873;stroke-linecap:square;stroke-linejoin:round;stroke-miterlimit:4;stroke-dasharray:none;stroke-dashoffset:0;stroke-opacity:1" />
    <path
       id="path6526-0-4-7-0-6-2-2"
       d="m 88.500777,48.234899 c 5.05e-4,3.56e-4 0.0036,7.12e-4 0.0036,0 0.04968,0.04768 0.752985,0.103975 1.563743,0.125397 0.574683,0.01495 1.001458,0.0427 1.303364,0.07942 -0.0014,0 -0.0043,-0.0071 -0.0057,-0.0093 -0.0348,-0.104544 -1.437422,-0.175427 -2.865271,-0.196706 z m -2.993257,1.660829 c 0.04384,0.209445 0.529142,0.250865 2.642773,0.250865 h -0.174687 -2.662999 v 2.663006 0.2177 c 0,-1.096473 -0.03373,-1.907851 -0.09489,-2.377981 v 0.659364 c 0,0.809029 0.02797,2.053957 0.06213,2.766697 l 0.06213,1.296026 1.007678,0.02704 1.007685,0.02704 -0.0021,0.09415 c 0.0301,-0.257839 0.05003,-0.613248 0.05003,-1.009151 v -1.319938 h 1.812722 c 1.190307,0 1.686193,-0.04697 1.855016,-0.190515 H 90.63864 V 52.810655 51.47933 51.478618 50.14772 49.957562 h -2.41328 c -1.327297,0 -2.546989,-0.02633 -2.710446,-0.05907 z m 7.984584,0.774869 v 1.99624 c -0.196806,0.489773 0.112807,3.327068 0.200072,1.66453 l 0.105548,-1.997308 0.03715,2.139998 c -0.377414,0.882403 6.443076,0.439387 6.599836,0.243891 0,-0.02349 0.002,-0.0427 0.004,-0.06263 -0.0638,-0.04341 -0.10934,-0.106964 -0.11401,-0.180907 -0.012,-0.19023 -0.0339,-0.19023 -0.1107,0 -0.22477,0.557026 -0.444627,0.162689 -0.444627,-0.797357 0,-0.569196 -0.08589,-1.087862 -0.190508,-1.152553 -0.104615,-0.06476 -0.19013,-0.02704 -0.19013,0.08384 0,0.134008 -0.906933,0.189447 -2.710446,0.165535 -1.490754,-0.01993 -2.218232,-0.0669 -1.616698,-0.104474 0.601533,-0.03772 1.093733,-0.149949 1.093733,-0.24937 0,-0.09935 -0.09576,-0.180551 -0.212569,-0.180551 -0.209979,0 -0.160169,-0.539447 0.108494,-1.176465 0.120877,-0.286591 -0.07695,-0.326515 -1.878188,-0.380247 -0.270272,-0.0078 -0.471917,-0.01 -0.680366,-0.0121 z m -6.277411,2.139713 h 0.01544 l -0.01544,0.412628 z m 5.722456,0.403091 c -0.333084,0.10362 -1.24095,0.166959 -2.69022,0.166959 h -2.651598 v 2.662579 c 0,1.40541 -0.05273,2.343323 -0.141217,2.591269 l 0.0691,0.16703 h 2.746478 c 3.650088,0.678721 2.781734,-1.733776 2.735099,-4.331593 -0.0028,-0.18596 -0.0064,-0.364661 -0.01139,-0.507493 -0.01267,-0.377044 -0.03053,-0.629047 -0.05629,-0.748751 z m -5.700757,5.990857 c 0.0098,0.02775 0.02363,0.03985 0.04192,0.03416 -0.01473,-0.01068 -0.0279,-0.02277 -0.04192,-0.03416 z"
       style="opacity:1;fill:#0698dc;fill-opacity:1;stroke:none;stroke-width:0.35944873;stroke-linecap:square;stroke-linejoin:round;stroke-miterlimit:4;stroke-dasharray:none;stroke-dashoffset:0;stroke-opacity:1" />
  </g>
</svg>
